<svg width="35" height="35" viewBox="0 0 35 35" fill="none" xmlns="http://www.w3.org/2000/svg">
<path d="M21.0555 0C21.327 8.33954e-06 21.5916 0.0840096 21.811 0.239906C22.0304 0.395803 22.1934 0.61555 22.2765 0.8675L23.6874 5.14C24.28 5.4225 24.8469 5.74 25.3882 6.0975L29.8928 5.1525C30.1584 5.09724 30.4352 5.12556 30.6832 5.23338C30.9312 5.34121 31.1377 5.52298 31.273 5.7525L34.8284 11.75C34.9642 11.9794 35.0217 12.2449 34.9926 12.5082C34.9636 12.7715 34.8495 13.019 34.6668 13.215L31.5757 16.54C31.6207 17.1776 31.6207 17.8174 31.5757 18.455L34.6668 21.785C34.8495 21.981 34.9636 22.2285 34.9926 22.4918C35.0217 22.7551 34.9642 23.0206 34.8284 23.25L31.273 29.25C31.1373 29.4791 30.9307 29.6603 30.6827 29.7677C30.4347 29.875 30.1582 29.903 29.8928 29.8475L25.3882 28.9025C24.8495 29.2575 24.28 29.5775 23.69 29.86L22.2765 34.1325C22.1934 34.3844 22.0304 34.6042 21.811 34.7601C21.5916 34.916 21.327 35 21.0555 35H13.9445C13.673 35 13.4084 34.916 13.189 34.7601C12.9696 34.6042 12.8066 34.3844 12.7235 34.1325L11.3151 29.8625C10.7241 29.5809 10.1541 29.2592 9.60922 28.9L5.10716 29.8475C4.84157 29.9028 4.56483 29.8744 4.31681 29.7666C4.06879 29.6588 3.86228 29.477 3.72705 29.2475L0.17158 23.25C0.0358116 23.0206 -0.0216957 22.7551 0.00735013 22.4918C0.036396 22.2285 0.150494 21.981 0.333192 21.785L3.42435 18.455C3.37957 17.8191 3.37957 17.1809 3.42435 16.545L0.333192 13.215C0.150494 13.019 0.036396 12.7715 0.00735013 12.5082C-0.0216957 12.2449 0.0358116 11.9794 0.17158 11.75L3.72705 5.75C3.86266 5.52093 4.06932 5.33969 4.31731 5.23232C4.5653 5.12496 4.84184 5.09701 5.10716 5.1525L9.60922 6.1C10.1531 5.7425 10.7225 5.42 11.3151 5.1375L12.726 0.8675C12.8089 0.616362 12.9711 0.397196 13.1895 0.241375C13.4079 0.0855535 13.6713 0.00106417 13.942 0H21.0529H21.0555ZM20.1166 2.5H14.8834L13.4263 6.9175L12.4438 7.385C11.9608 7.61534 11.4946 7.87762 11.0483 8.17L10.1402 8.77L5.4817 7.79L2.86512 12.21L6.05888 15.655L5.98192 16.715C5.94506 17.2377 5.94506 17.7623 5.98192 18.285L6.05888 19.345L2.85999 22.79L5.47913 27.21L10.1377 26.2325L11.0458 26.83C11.492 27.1224 11.9583 27.3847 12.4413 27.615L13.4238 28.0825L14.8834 32.5H20.1217L21.5839 28.08L22.5638 27.615C23.0463 27.3852 23.5118 27.1229 23.9568 26.83L24.8623 26.2325L29.5234 27.21L32.14 22.79L28.9437 19.345L29.0206 18.285C29.0576 17.7615 29.0576 17.236 29.0206 16.7125L28.9437 15.6525L32.1426 12.21L29.5234 7.79L24.8623 8.765L23.9568 8.17C23.5118 7.87704 23.0464 7.61473 22.5638 7.385L21.5839 6.92L20.1191 2.5H20.1166ZM17.5 10C19.5411 10 21.4985 10.7902 22.9418 12.1967C24.385 13.6032 25.1958 15.5109 25.1958 17.5C25.1958 19.4891 24.385 21.3968 22.9418 22.8033C21.4985 24.2098 19.5411 25 17.5 25C15.4589 25 13.5015 24.2098 12.0582 22.8033C10.615 21.3968 9.80418 19.4891 9.80418 17.5C9.80418 15.5109 10.615 13.6032 12.0582 12.1967C13.5015 10.7902 15.4589 10 17.5 10ZM17.5 12.5C16.1393 12.5 14.8343 13.0268 13.8722 13.9645C12.91 14.9021 12.3695 16.1739 12.3695 17.5C12.3695 18.8261 12.91 20.0979 13.8722 21.0355C14.8343 21.9732 16.1393 22.5 17.5 22.5C18.8607 22.5 20.1657 21.9732 21.1278 21.0355C22.09 20.0979 22.6305 18.8261 22.6305 17.5C22.6305 16.1739 22.09 14.9021 21.1278 13.9645C20.1657 13.0268 18.8607 12.5 17.5 12.5Z" fill="#0F8B78"/>
</svg>
