solid 
facet normal -0.98162717 -0.1907623 0.0042240284
 outer loop
  vertex -2.2103834 2.222314 12.346819
  vertex -6.895623 26.320087 11.823192
  vertex -6.895772 26.278427 9.907187
 endloop
endfacet
facet normal -0.98162717 -0.19076231 0.004224084
 outer loop
  vertex -2.2103834 2.222314 12.346819
  vertex -6.895772 26.278427 9.907187
  vertex -2.2105322 2.1806517 10.430815
 endloop
endfacet
facet normal -7.773187e-05 -0.021739257 -0.9997636
 outer loop
  vertex -0.32928658 2.546239 10.422719
  vertex -2.2105322 2.1806517 10.430815
  vertex -6.895772 26.278427 9.907187
 endloop
endfacet
facet normal -7.77531e-05 -0.021739261 -0.9997636
 outer loop
  vertex -0.32928658 2.546239 10.422719
  vertex -6.895772 26.278427 9.907187
  vertex -5.0145264 26.644012 9.899092
 endloop
endfacet
facet normal -0.19080788 0.9813957 -0.021323996
 outer loop
  vertex -5.0145264 26.644012 9.899092
  vertex -6.895772 26.278427 9.907187
  vertex -6.895623 26.320087 11.823192
 endloop
endfacet
facet normal -0.19080982 0.9813953 -0.021325937
 outer loop
  vertex -5.0145264 26.644012 9.899092
  vertex -6.895623 26.320087 11.823192
  vertex -5.0143776 26.685677 11.815096
 endloop
endfacet
facet normal 0.98162717 0.1907623 -0.0042242184
 outer loop
  vertex -5.0143776 26.685677 11.815096
  vertex -0.3291378 2.587901 12.338723
  vertex -0.32928658 2.546239 10.422719
 endloop
endfacet
facet normal 0.98162717 0.1907623 -0.004224408
 outer loop
  vertex -5.0143776 26.685677 11.815096
  vertex -0.32928658 2.546239 10.422719
  vertex -5.0145264 26.644012 9.899092
 endloop
endfacet
facet normal 0.19080886 -0.98139554 0.021324966
 outer loop
  vertex -0.3291378 2.587901 12.338723
  vertex -2.2103834 2.222314 12.346819
  vertex -2.2105322 2.1806517 10.430815
 endloop
endfacet
facet normal 0.19080885 -0.98139554 0.021324966
 outer loop
  vertex -0.3291378 2.587901 12.338723
  vertex -2.2105322 2.1806517 10.430815
  vertex -0.32928658 2.546239 10.422719
 endloop
endfacet
facet normal 7.771064e-05 0.021739254 0.9997636
 outer loop
  vertex -5.0143776 26.685677 11.815096
  vertex -6.895623 26.320087 11.823192
  vertex -2.2103834 2.222314 12.346819
 endloop
endfacet
facet normal 7.7732504e-05 0.021739257 0.9997637
 outer loop
  vertex -5.0143776 26.685677 11.815096
  vertex -2.2103834 2.222314 12.346819
  vertex -0.3291378 2.587901 12.338723
 endloop
endfacet
facet normal 3.9996477e-09 0.99976367 -0.021739207
 outer loop
  vertex -66.20728 2.3513517 -10.036495
  vertex -0.3290863 2.3512402 -10.041615
  vertex -0.32923508 2.309578 -11.957617
 endloop
endfacet
facet normal 3.9996473e-09 0.99976367 -0.021739205
 outer loop
  vertex -66.20728 2.3513517 -10.036495
  vertex -0.32923508 2.309578 -11.957617
  vertex -66.207436 2.3096895 -11.9524975
 endloop
endfacet
facet normal -7.772737e-05 -0.021739207 -0.99976367
 outer loop
  vertex -66.20743 0.39368725 -11.910835
  vertex -66.207436 2.3096895 -11.9524975
  vertex -0.32923508 2.309578 -11.957617
 endloop
endfacet
facet normal -7.772771e-05 -0.021739196 -0.99976367
 outer loop
  vertex -66.20743 0.39368725 -11.910835
  vertex -0.32923508 2.309578 -11.957617
  vertex -0.32923198 0.3935747 -11.915955
 endloop
endfacet
facet normal 1 -7.070458e-08 -7.764618e-05
 outer loop
  vertex -0.32923198 0.3935747 -11.915955
  vertex -0.32923508 2.309578 -11.957617
  vertex -0.3290863 2.3512402 -10.041615
 endloop
endfacet
facet normal 1 -7.070458e-08 -7.764618e-05
 outer loop
  vertex -0.32923198 0.3935747 -11.915955
  vertex -0.3290863 2.3512402 -10.041615
  vertex -0.3290832 0.43523693 -9.999952
 endloop
endfacet
facet normal -3.2906822e-08 -0.99976367 0.021739705
 outer loop
  vertex -0.3290832 0.43523693 -9.999952
  vertex -66.207275 0.43535042 -9.994833
  vertex -66.20743 0.39368725 -11.910835
 endloop
endfacet
facet normal -1.8472539e-08 -0.99976367 0.02173921
 outer loop
  vertex -0.3290832 0.43523693 -9.999952
  vertex -66.20743 0.39368725 -11.910835
  vertex -0.32923198 0.3935747 -11.915955
 endloop
endfacet
facet normal -1 -2.2491806e-06 7.968758e-05
 outer loop
  vertex -66.207275 0.43535042 -9.994833
  vertex -66.20728 2.3513517 -10.036495
  vertex -66.207436 2.3096895 -11.9524975
 endloop
endfacet
facet normal -1 -2.2491795e-06 7.968758e-05
 outer loop
  vertex -66.207275 0.43535042 -9.994833
  vertex -66.207436 2.3096895 -11.9524975
  vertex -66.20743 0.39368725 -11.910835
 endloop
endfacet
facet normal 7.7727374e-05 0.021739196 0.99976367
 outer loop
  vertex -0.3290832 0.43523693 -9.999952
  vertex -0.3290863 2.3512402 -10.041615
  vertex -66.20728 2.3513517 -10.036495
 endloop
endfacet
facet normal 7.772803e-05 0.02173922 0.99976367
 outer loop
  vertex -0.3290832 0.43523693 -9.999952
  vertex -66.20728 2.3513517 -10.036495
  vertex -66.207275 0.43535042 -9.994833
 endloop
endfacet
facet normal -3.8748125e-09 0.99976367 -0.021740193
 outer loop
  vertex -66.18098 26.703003 11.795892
  vertex -5.0939207 26.7029 11.791144
  vertex -5.0940695 26.661236 9.875141
 endloop
endfacet
facet normal 5.871211e-08 0.99976367 -0.0217382
 outer loop
  vertex -66.18098 26.703003 11.795892
  vertex -5.0940695 26.661236 9.875141
  vertex -66.18113 26.661343 9.879889
 endloop
endfacet
facet normal -7.77348e-05 -0.02173914 -0.9997636
 outer loop
  vertex -66.18112 24.745335 9.921551
  vertex -66.18113 26.661343 9.879889
  vertex -5.0940695 26.661236 9.875141
 endloop
endfacet
facet normal -7.773345e-05 -0.021739187 -0.99976367
 outer loop
  vertex -66.18112 24.745335 9.921551
  vertex -5.0940695 26.661236 9.875141
  vertex -5.09407 24.745232 9.916803
 endloop
endfacet
facet normal 1 -1.9363513e-06 -7.760557e-05
 outer loop
  vertex -5.09407 24.745232 9.916803
  vertex -5.0940695 26.661236 9.875141
  vertex -5.0939207 26.7029 11.791144
 endloop
endfacet
facet normal 1 -1.6930451e-06 -7.785969e-05
 outer loop
  vertex -5.09407 24.745232 9.916803
  vertex -5.0939207 26.7029 11.791144
  vertex -5.0939207 24.786896 11.832808
 endloop
endfacet
facet normal 3.5353485e-09 -0.99976367 0.021740193
 outer loop
  vertex -5.0939207 24.786896 11.832808
  vertex -66.18098 24.786999 11.837554
  vertex -66.18112 24.745335 9.921551
 endloop
endfacet
facet normal 3.8739403e-09 -0.9997636 0.02174018
 outer loop
  vertex -5.0939207 24.786896 11.832808
  vertex -66.18112 24.745335 9.921551
  vertex -5.09407 24.745232 9.916803
 endloop
endfacet
facet normal -1 1.73087e-06 7.9601006e-05
 outer loop
  vertex -66.18098 24.786999 11.837554
  vertex -66.18098 26.703003 11.795892
  vertex -66.18113 26.661343 9.879889
 endloop
endfacet
facet normal -1 -2.335717e-06 7.5707496e-05
 outer loop
  vertex -66.18098 24.786999 11.837554
  vertex -66.18113 26.661343 9.879889
  vertex -66.18112 24.745335 9.921551
 endloop
endfacet
facet normal 7.773346e-05 0.021739682 0.9997636
 outer loop
  vertex -5.0939207 24.786896 11.832808
  vertex -5.0939207 26.7029 11.791144
  vertex -66.18098 26.703003 11.795892
 endloop
endfacet
facet normal 7.7717785e-05 0.021739183 0.9997636
 outer loop
  vertex -5.0939207 24.786896 11.832808
  vertex -66.18098 26.703003 11.795892
  vertex -66.18098 24.786999 11.837554
 endloop
endfacet
facet normal 2.7496947e-08 0.99976367 -0.021738192
 outer loop
  vertex -66.18271 26.216764 -10.565559
  vertex -5.095653 26.21666 -10.570307
  vertex -5.0958023 26.175 -12.486311
 endloop
endfacet
facet normal -3.7966257e-09 0.9997636 -0.021739181
 outer loop
  vertex -66.18271 26.216764 -10.565559
  vertex -5.0958023 26.175 -12.486311
  vertex -66.18285 26.175102 -12.481564
 endloop
endfacet
facet normal -7.773346e-05 -0.021739207 -0.9997636
 outer loop
  vertex -66.18286 24.2591 -12.439901
  vertex -66.18285 26.175102 -12.481564
  vertex -5.0958023 26.175 -12.486311
 endloop
endfacet
facet normal -7.773414e-05 -0.021739185 -0.9997636
 outer loop
  vertex -66.18286 24.2591 -12.439901
  vertex -5.0958023 26.175 -12.486311
  vertex -5.095803 24.258995 -12.444649
 endloop
endfacet
facet normal 1 -1.9417594e-06 -7.785428e-05
 outer loop
  vertex -5.095803 24.258995 -12.444649
  vertex -5.0958023 26.175 -12.486311
  vertex -5.095653 26.21666 -10.570307
 endloop
endfacet
facet normal 1 -1.9417614e-06 -7.785428e-05
 outer loop
  vertex -5.095803 24.258995 -12.444649
  vertex -5.095653 26.21666 -10.570307
  vertex -5.0956535 24.300657 -10.528645
 endloop
endfacet
facet normal -2.7419507e-08 -0.9997636 0.021739183
 outer loop
  vertex -5.0956535 24.300657 -10.528645
  vertex -66.18271 24.300762 -10.523897
  vertex -66.18286 24.2591 -12.439901
 endloop
endfacet
facet normal -2.7419503e-08 -0.9997636 0.021739183
 outer loop
  vertex -5.0956535 24.300657 -10.528645
  vertex -66.18286 24.2591 -12.439901
  vertex -5.095803 24.258995 -12.444649
 endloop
endfacet
facet normal -1 1.6443273e-06 7.562092e-05
 outer loop
  vertex -66.18271 24.300762 -10.523897
  vertex -66.18271 26.216764 -10.565559
  vertex -66.18285 26.175102 -12.481564
 endloop
endfacet
facet normal -1 5.710923e-06 7.951442e-05
 outer loop
  vertex -66.18271 24.300762 -10.523897
  vertex -66.18285 26.175102 -12.481564
  vertex -66.18286 24.2591 -12.439901
 endloop
endfacet
facet normal 7.7734134e-05 0.021739205 0.9997636
 outer loop
  vertex -5.0956535 24.300657 -10.528645
  vertex -5.095653 26.21666 -10.570307
  vertex -66.18271 26.216764 -10.565559
 endloop
endfacet
facet normal 7.773409e-05 0.021739205 0.9997636
 outer loop
  vertex -5.0956535 24.300657 -10.528645
  vertex -66.18271 26.216764 -10.565559
  vertex -66.18271 24.300762 -10.523897
 endloop
endfacet
facet normal 1.84707e-08 0.99976367 -0.021739231
 outer loop
  vertex -66.20557 2.8331184 12.119376
  vertex -0.32736778 2.833006 12.114257
  vertex -0.32922983 2.3122272 -11.835789
 endloop
endfacet
facet normal 3.9947534e-09 0.99976367 -0.02173927
 outer loop
  vertex -66.20557 2.8331184 12.119376
  vertex -0.32922983 2.3122272 -11.835789
  vertex -66.20743 2.3123388 -11.830669
 endloop
endfacet
facet normal -7.7727374e-05 -0.021739196 -0.99976367
 outer loop
  vertex -66.20742 0.3963356 -11.789007
  vertex -66.20743 2.3123388 -11.830669
  vertex -0.32922983 2.3122272 -11.835789
 endloop
endfacet
facet normal -7.772742e-05 -0.021739196 -0.99976367
 outer loop
  vertex -66.20742 0.3963356 -11.789007
  vertex -0.32922983 2.3122272 -11.835789
  vertex -0.32922673 0.39622402 -11.7941265
 endloop
endfacet
facet normal 1 -7.286677e-08 -7.7745615e-05
 outer loop
  vertex -0.32922673 0.39622402 -11.7941265
  vertex -0.32922983 2.3122272 -11.835789
  vertex -0.32736778 2.833006 12.114257
 endloop
endfacet
facet normal 1 -7.286713e-08 -7.774562e-05
 outer loop
  vertex -0.32922673 0.39622402 -11.7941265
  vertex -0.32736778 2.833006 12.114257
  vertex -0.32736468 0.91700363 12.155919
 endloop
endfacet
facet normal -3.9947534e-09 -0.99976367 0.02173927
 outer loop
  vertex -0.32736468 0.91700363 12.155919
  vertex -66.20556 0.9171152 12.161038
  vertex -66.20742 0.3963356 -11.789007
 endloop
endfacet
facet normal -3.994606e-09 -0.99976367 0.02173927
 outer loop
  vertex -0.32736468 0.91700363 12.155919
  vertex -66.20742 0.3963356 -11.789007
  vertex -0.32922673 0.39622402 -11.7941265
 endloop
endfacet
facet normal -1 -2.2907204e-06 7.77771e-05
 outer loop
  vertex -66.20556 0.9171152 12.161038
  vertex -66.20557 2.8331184 12.119376
  vertex -66.20743 2.3123388 -11.830669
 endloop
endfacet
facet normal -1 -2.2907204e-06 7.7777106e-05
 outer loop
  vertex -66.20556 0.9171152 12.161038
  vertex -66.20743 2.3123388 -11.830669
  vertex -66.20742 0.3963356 -11.789007
 endloop
endfacet
facet normal 7.7727695e-05 0.021739207 0.99976367
 outer loop
  vertex -0.32736468 0.91700363 12.155919
  vertex -0.32736778 2.833006 12.114257
  vertex -66.20557 2.8331184 12.119376
 endloop
endfacet
facet normal 7.772735e-05 0.021739196 0.99976367
 outer loop
  vertex -0.32736468 0.91700363 12.155919
  vertex -66.20557 2.8331184 12.119376
  vertex -66.20556 0.9171152 12.161038
 endloop
endfacet
facet normal -1 1.3495142e-06 7.562736e-05
 outer loop
  vertex -66.363365 0.8464041 12.3715105
  vertex -66.36337 26.712452 11.809069
  vertex -66.36352 26.67079 9.893065
 endloop
endfacet
facet normal -1 1.7308766e-06 7.9601006e-05
 outer loop
  vertex -66.363365 0.8464041 12.3715105
  vertex -66.36352 26.67079 9.893065
  vertex -66.36352 0.80474186 10.455507
 endloop
endfacet
facet normal -7.7676115e-05 -0.021739267 -0.99976367
 outer loop
  vertex -64.44707 0.80473614 10.4553585
  vertex -66.36352 0.80474186 10.455507
  vertex -66.36352 26.67079 9.893065
 endloop
endfacet
facet normal -7.767611e-05 -0.021739265 -0.99976367
 outer loop
  vertex -64.44707 0.80473614 10.4553585
  vertex -66.36352 26.67079 9.893065
  vertex -64.44707 26.670784 9.892917
 endloop
endfacet
facet normal 1.2974423e-06 0.99976367 -0.021739196
 outer loop
  vertex -64.44707 26.670784 9.892917
  vertex -66.36352 26.67079 9.893065
  vertex -66.36337 26.712452 11.809069
 endloop
endfacet
facet normal 3.023484e-07 0.9997637 -0.021740194
 outer loop
  vertex -64.44707 26.670784 9.892917
  vertex -66.36337 26.712452 11.809069
  vertex -64.446915 26.712448 11.80892
 endloop
endfacet
facet normal 1 -1.7308762e-06 -7.9601006e-05
 outer loop
  vertex -64.446915 26.712448 11.80892
  vertex -64.446915 0.84639835 12.371362
  vertex -64.44707 0.80473614 10.4553585
 endloop
endfacet
facet normal 1 -1.7308765e-06 -7.9601e-05
 outer loop
  vertex -64.446915 26.712448 11.80892
  vertex -64.44707 0.80473614 10.4553585
  vertex -64.44707 26.670784 9.892917
 endloop
endfacet
facet normal -1.2974423e-06 -0.99976367 0.021739196
 outer loop
  vertex -64.446915 0.84639835 12.371362
  vertex -66.363365 0.8464041 12.3715105
  vertex -66.36352 0.80474186 10.455507
 endloop
endfacet
facet normal -1.2974423e-06 -0.99976367 0.021739196
 outer loop
  vertex -64.446915 0.84639835 12.371362
  vertex -66.36352 0.80474186 10.455507
  vertex -64.44707 0.80473614 10.4553585
 endloop
endfacet
facet normal 7.7654164e-05 0.021739267 0.99976367
 outer loop
  vertex -64.446915 26.712448 11.80892
  vertex -66.36337 26.712452 11.809069
  vertex -66.363365 0.8464041 12.3715105
 endloop
endfacet
facet normal 7.767611e-05 0.021739265 0.99976367
 outer loop
  vertex -64.446915 26.712448 11.80892
  vertex -66.363365 0.8464041 12.3715105
  vertex -64.446915 0.84639835 12.371362
 endloop
endfacet
facet normal 3.294622e-08 0.99976367 -0.021739196
 outer loop
  vertex -66.20555 2.8376598 12.328207
  vertex -0.32735157 2.8375463 12.323088
  vertex -0.32750058 2.7958841 10.407084
 endloop
endfacet
facet normal 3.294622e-08 0.99976367 -0.021739196
 outer loop
  vertex -66.20555 2.8376598 12.328207
  vertex -0.32750058 2.7958841 10.407084
  vertex -66.205696 2.7959976 10.412204
 endloop
endfacet
facet normal -7.772801e-05 -0.021739196 -0.99976367
 outer loop
  vertex -66.205696 0.8799944 10.453866
  vertex -66.205696 2.7959976 10.412204
  vertex -0.32750058 2.7958841 10.407084
 endloop
endfacet
facet normal -7.772768e-05 -0.021739207 -0.99976367
 outer loop
  vertex -66.205696 0.8799944 10.453866
  vertex -0.32750058 2.7958841 10.407084
  vertex -0.32749748 0.87988186 10.448747
 endloop
endfacet
facet normal 1 -7.3408195e-08 -7.777052e-05
 outer loop
  vertex -0.32749748 0.87988186 10.448747
  vertex -0.32750058 2.7958841 10.407084
  vertex -0.32735157 2.8375463 12.323088
 endloop
endfacet
facet normal 1 -7.340832e-08 -7.777051e-05
 outer loop
  vertex -0.32749748 0.87988186 10.448747
  vertex -0.32735157 2.8375463 12.323088
  vertex -0.32734847 0.9215441 12.36475
 endloop
endfacet
facet normal -1.8473337e-08 -0.99976367 0.021739196
 outer loop
  vertex -0.32734847 0.9215441 12.36475
  vertex -66.20554 0.9216566 12.369869
  vertex -66.205696 0.8799944 10.453866
 endloop
endfacet
facet normal -1.8473338e-08 -0.99976367 0.021739198
 outer loop
  vertex -0.32734847 0.9215441 12.36475
  vertex -66.205696 0.8799944 10.453866
  vertex -0.32749748 0.87988186 10.448747
 endloop
endfacet
facet normal -1 -2.335723e-06 7.5707496e-05
 outer loop
  vertex -66.20554 0.9216566 12.369869
  vertex -66.20555 2.8376598 12.328207
  vertex -66.205696 2.7959976 10.412204
 endloop
endfacet
facet normal -1 1.7308708e-06 7.9601006e-05
 outer loop
  vertex -66.20554 0.9216566 12.369869
  vertex -66.205696 2.7959976 10.412204
  vertex -66.205696 0.8799944 10.453866
 endloop
endfacet
facet normal 7.772801e-05 0.021739207 0.99976367
 outer loop
  vertex -0.32734847 0.9215441 12.36475
  vertex -0.32735157 2.8375463 12.323088
  vertex -66.20555 2.8376598 12.328207
 endloop
endfacet
facet normal 7.7727644e-05 0.021739196 0.99976367
 outer loop
  vertex -0.32734847 0.9215441 12.36475
  vertex -66.20555 2.8376598 12.328207
  vertex -66.20554 0.9216566 12.369869
 endloop
endfacet
facet normal 1.2974356e-06 0.99976367 -0.02173928
 outer loop
  vertex -64.44692 26.722435 11.690824
  vertex -64.44881 26.196447 -12.49872
  vertex -66.36526 26.196453 -12.498571
 endloop
endfacet
facet normal 3.085046e-07 0.99976367 -0.021739202
 outer loop
  vertex -64.44692 26.722435 11.690824
  vertex -66.36526 26.196453 -12.498571
  vertex -66.36338 26.722439 11.690972
 endloop
endfacet
facet normal -1 1.6863127e-06 7.755186e-05
 outer loop
  vertex -66.36338 24.806435 11.732635
  vertex -66.36338 26.722439 11.690972
  vertex -66.36526 26.196453 -12.498571
 endloop
endfacet
facet normal -1 1.6863129e-06 7.7551864e-05
 outer loop
  vertex -66.36338 24.806435 11.732635
  vertex -66.36526 26.196453 -12.498571
  vertex -66.36526 24.280449 -12.456909
 endloop
endfacet
facet normal -7.7676115e-05 -0.021739185 -0.99976367
 outer loop
  vertex -66.36526 24.280449 -12.456909
  vertex -66.36526 26.196453 -12.498571
  vertex -64.44881 26.196447 -12.49872
 endloop
endfacet
facet normal -7.7654346e-05 -0.021739207 -0.99976367
 outer loop
  vertex -66.36526 24.280449 -12.456909
  vertex -64.44881 26.196447 -12.49872
  vertex -64.44881 24.280445 -12.457058
 endloop
endfacet
facet normal 6.9259244e-07 -0.99976367 0.021739282
 outer loop
  vertex -64.44881 24.280445 -12.457058
  vertex -64.44692 24.806433 11.732486
  vertex -66.36338 24.806435 11.732635
 endloop
endfacet
facet normal -2.879388e-07 -0.99976367 0.021739202
 outer loop
  vertex -64.44881 24.280445 -12.457058
  vertex -66.36338 24.806435 11.732635
  vertex -66.36526 24.280449 -12.456909
 endloop
endfacet
facet normal 7.765417e-05 0.021739207 0.99976367
 outer loop
  vertex -64.44692 24.806433 11.732486
  vertex -64.44692 26.722435 11.690824
  vertex -66.36338 26.722439 11.690972
 endloop
endfacet
facet normal 7.7631645e-05 0.021739185 0.99976367
 outer loop
  vertex -64.44692 24.806433 11.732486
  vertex -66.36338 26.722439 11.690972
  vertex -66.36338 24.806435 11.732635
 endloop
endfacet
facet normal 1 -1.6931693e-06 -7.786711e-05
 outer loop
  vertex -64.44881 24.280445 -12.457058
  vertex -64.44881 26.196447 -12.49872
  vertex -64.44692 26.722435 11.690824
 endloop
endfacet
facet normal 1 -1.6931695e-06 -7.786712e-05
 outer loop
  vertex -64.44881 24.280445 -12.457058
  vertex -64.44692 26.722435 11.690824
  vertex -64.44692 24.806433 11.732486
 endloop
endfacet
facet normal -1 1.5954756e-06 7.7612945e-05
 outer loop
  vertex -6.9929013 0.35968304 -10.0121765
  vertex -6.9929037 26.225733 -10.574619
  vertex -6.9930525 26.18407 -12.490623
 endloop
endfacet
facet normal -1 1.6193108e-06 7.7861296e-05
 outer loop
  vertex -6.9929013 0.35968304 -10.0121765
  vertex -6.9930525 26.18407 -12.490623
  vertex -6.9930506 0.31802082 -11.928181
 endloop
endfacet
facet normal -7.8660036e-05 -0.021739302 -0.99976367
 outer loop
  vertex -5.0765934 0.31801605 -11.928331
  vertex -6.9930506 0.31802082 -11.928181
  vertex -6.9930525 26.18407 -12.490623
 endloop
endfacet
facet normal -7.765422e-05 -0.021739228 -0.99976367
 outer loop
  vertex -5.0765934 0.31801605 -11.928331
  vertex -6.9930525 26.18407 -12.490623
  vertex -5.076596 26.184067 -12.490772
 endloop
endfacet
facet normal 3.024267e-07 0.99976367 -0.021739185
 outer loop
  vertex -5.076596 26.184067 -12.490772
  vertex -6.9930525 26.18407 -12.490623
  vertex -6.9929037 26.225733 -10.574619
 endloop
endfacet
facet normal 1.297516e-06 0.9997637 -0.021738192
 outer loop
  vertex -5.076596 26.184067 -12.490772
  vertex -6.9929037 26.225733 -10.574619
  vertex -5.0764465 26.225727 -10.574768
 endloop
endfacet
facet normal 1 -1.6138962e-06 -7.761254e-05
 outer loop
  vertex -5.0764465 26.225727 -10.574768
  vertex -5.0764446 0.35967827 -10.012327
  vertex -5.0765934 0.31801605 -11.928331
 endloop
endfacet
facet normal 1 -1.6008788e-06 -7.7861696e-05
 outer loop
  vertex -5.0764465 26.225727 -10.574768
  vertex -5.0765934 0.31801605 -11.928331
  vertex -5.076596 26.184067 -12.490772
 endloop
endfacet
facet normal -7.782969e-07 -0.99976367 0.021739185
 outer loop
  vertex -5.0764446 0.35967827 -10.012327
  vertex -6.9929013 0.35968304 -10.0121765
  vertex -6.9930506 0.31802082 -11.928181
 endloop
endfacet
facet normal -7.7829685e-07 -0.9997637 0.021739189
 outer loop
  vertex -5.0764446 0.35967827 -10.012327
  vertex -6.9930506 0.31802082 -11.928181
  vertex -5.0765934 0.31801605 -11.928331
 endloop
endfacet
facet normal 7.7675846e-05 0.021739302 0.99976367
 outer loop
  vertex -5.0764465 26.225727 -10.574768
  vertex -6.9929037 26.225733 -10.574619
  vertex -6.9929013 0.35968304 -10.0121765
 endloop
endfacet
facet normal 7.866006e-05 0.02173923 0.99976367
 outer loop
  vertex -5.0764465 26.225727 -10.574768
  vertex -6.9929013 0.35968304 -10.0121765
  vertex -5.0764446 0.35967827 -10.012327
 endloop
endfacet
facet normal -1 1.5770438e-06 7.7613346e-05
 outer loop
  vertex -6.991167 0.84652424 12.377104
  vertex -6.99117 26.712574 11.814663
  vertex -6.9913187 26.670912 9.898659
 endloop
endfacet
facet normal -1 1.5770477e-06 7.761339e-05
 outer loop
  vertex -6.991167 0.84652424 12.377104
  vertex -6.9913187 26.670912 9.898659
  vertex -6.991316 0.804862 10.461101
 endloop
endfacet
facet normal -7.765422e-05 -0.021739263 -0.99976367
 outer loop
  vertex -5.074859 0.8048582 10.460952
  vertex -6.991316 0.804862 10.461101
  vertex -6.9913187 26.670912 9.898659
 endloop
endfacet
facet normal -7.767584e-05 -0.021739267 -0.99976367
 outer loop
  vertex -5.074859 0.8048582 10.460952
  vertex -6.9913187 26.670912 9.898659
  vertex -5.0748615 26.670906 9.89851
 endloop
endfacet
facet normal 1.2974388e-06 0.9997637 -0.021739189
 outer loop
  vertex -5.0748615 26.670906 9.89851
  vertex -6.9913187 26.670912 9.898659
  vertex -6.99117 26.712574 11.814663
 endloop
endfacet
facet normal 3.023494e-07 0.9997637 -0.021740181
 outer loop
  vertex -5.0748615 26.670906 9.89851
  vertex -6.99117 26.712574 11.814663
  vertex -5.0747128 26.71257 11.814514
 endloop
endfacet
facet normal 1 -1.5954707e-06 -7.761298e-05
 outer loop
  vertex -5.0747128 26.71257 11.814514
  vertex -5.0747104 0.8465204 12.376955
  vertex -5.074859 0.8048582 10.460952
 endloop
endfacet
facet normal 1 -1.5954731e-06 -7.7612945e-05
 outer loop
  vertex -5.0747128 26.71257 11.814514
  vertex -5.074859 0.8048582 10.460952
  vertex -5.0748615 26.670906 9.89851
 endloop
endfacet
facet normal -3.0242586e-07 -0.99976367 0.021739196
 outer loop
  vertex -5.0747104 0.8465204 12.376955
  vertex -6.991167 0.84652424 12.377104
  vertex -6.991316 0.804862 10.461101
 endloop
endfacet
facet normal -3.0242586e-07 -0.99976367 0.021739196
 outer loop
  vertex -5.0747104 0.8465204 12.376955
  vertex -6.991316 0.804862 10.461101
  vertex -5.074859 0.8048582 10.460952
 endloop
endfacet
facet normal 7.765421e-05 0.021739228 0.99976367
 outer loop
  vertex -5.0747128 26.71257 11.814514
  vertex -6.99117 26.712574 11.814663
  vertex -6.991167 0.84652424 12.377104
 endloop
endfacet
facet normal 7.765422e-05 0.021739224 0.99976367
 outer loop
  vertex -5.0747128 26.71257 11.814514
  vertex -6.991167 0.84652424 12.377104
  vertex -5.0747104 0.8465204 12.376955
 endloop
endfacet
facet normal -1 1.5409486e-06 7.7329714e-05
 outer loop
  vertex -26.697567 0.9699087 12.331406
  vertex -26.697573 41.68499 11.446081
  vertex -26.697702 41.648533 9.769578
 endloop
endfacet
facet normal -1 1.6124999e-06 7.846588e-05
 outer loop
  vertex -26.697567 0.9699087 12.331406
  vertex -26.697702 41.648533 9.769578
  vertex -26.697699 0.93345356 10.654902
 endloop
endfacet
facet normal -7.737607e-05 -0.02173925 -0.9997637
 outer loop
  vertex -25.020798 0.93344975 10.654773
  vertex -26.697699 0.93345356 10.654902
  vertex -26.697702 41.648533 9.769578
 endloop
endfacet
facet normal -7.737607e-05 -0.02173925 -0.9997637
 outer loop
  vertex -25.020798 0.93344975 10.654773
  vertex -26.697702 41.648533 9.769578
  vertex -25.020802 41.64853 9.769448
 endloop
endfacet
facet normal 5.927757e-07 0.9997636 -0.021740755
 outer loop
  vertex -25.020802 41.64853 9.769448
  vertex -26.697702 41.648533 9.769578
  vertex -26.697573 41.68499 11.446081
 endloop
endfacet
facet normal 2.8672637e-06 0.9997637 -0.021738483
 outer loop
  vertex -25.020802 41.64853 9.769448
  vertex -26.697573 41.68499 11.446081
  vertex -25.020672 41.684982 11.445951
 endloop
endfacet
facet normal 1 -1.5877731e-06 -7.732871e-05
 outer loop
  vertex -25.020672 41.684982 11.445951
  vertex -25.020668 0.9699049 12.331276
  vertex -25.020798 0.93344975 10.654773
 endloop
endfacet
facet normal 1 -1.5877729e-06 -7.732871e-05
 outer loop
  vertex -25.020672 41.684982 11.445951
  vertex -25.020798 0.93344975 10.654773
  vertex -25.020802 41.64853 9.769448
 endloop
endfacet
facet normal -5.9286435e-07 -0.9997637 0.021739619
 outer loop
  vertex -25.020668 0.9699049 12.331276
  vertex -26.697567 0.9699087 12.331406
  vertex -26.697699 0.93345356 10.654902
 endloop
endfacet
facet normal -5.928637e-07 -0.9997637 0.021739619
 outer loop
  vertex -25.020668 0.9699049 12.331276
  vertex -26.697699 0.93345356 10.654902
  vertex -25.020798 0.93344975 10.654773
 endloop
endfacet
facet normal 7.742552e-05 0.02173925 0.9997637
 outer loop
  vertex -25.020672 41.684982 11.445951
  vertex -26.697573 41.68499 11.446081
  vertex -26.697567 0.9699087 12.331406
 endloop
endfacet
facet normal 7.737615e-05 0.021739248 0.9997636
 outer loop
  vertex -25.020672 41.684982 11.445951
  vertex -26.697567 0.9699087 12.331406
  vertex -25.020668 0.9699049 12.331276
 endloop
endfacet
facet normal -1 1.5877729e-06 7.732871e-05
 outer loop
  vertex -36.903416 0.9699259 12.332195
  vertex -36.90342 41.685005 11.446871
  vertex -36.90355 41.648552 9.770368
 endloop
endfacet
facet normal -1 1.5877731e-06 7.732872e-05
 outer loop
  vertex -36.903416 0.9699259 12.332195
  vertex -36.90355 41.648552 9.770368
  vertex -36.903545 0.9334717 10.655692
 endloop
endfacet
facet normal -7.793235e-05 -0.021739246 -0.9997636
 outer loop
  vertex -35.226646 0.9334688 10.655561
  vertex -36.903545 0.9334717 10.655692
  vertex -36.90355 41.648552 9.770368
 endloop
endfacet
facet normal -7.794472e-05 -0.021739246 -0.9997636
 outer loop
  vertex -35.226646 0.9334688 10.655561
  vertex -36.90355 41.648552 9.770368
  vertex -35.22665 41.64855 9.770237
 endloop
endfacet
facet normal 5.8058936e-07 0.9997637 -0.02173848
 outer loop
  vertex -35.22665 41.64855 9.770237
  vertex -36.90355 41.648552 9.770368
  vertex -36.90342 41.685005 11.446871
 endloop
endfacet
facet normal 5.8058936e-07 0.9997637 -0.02173848
 outer loop
  vertex -35.22665 41.64855 9.770237
  vertex -36.90342 41.685005 11.446871
  vertex -35.22652 41.685 11.44674
 endloop
endfacet
facet normal 1 -1.5435791e-06 -7.9605015e-05
 outer loop
  vertex -35.22652 41.685 11.44674
  vertex -35.226513 0.969923 12.332066
  vertex -35.226646 0.9334688 10.655561
 endloop
endfacet
facet normal 1 -1.5877729e-06 -7.732871e-05
 outer loop
  vertex -35.22652 41.685 11.44674
  vertex -35.226646 0.9334688 10.655561
  vertex -35.22665 41.64855 9.770237
 endloop
endfacet
facet normal -2.4329653e-08 -0.9997637 0.021739049
 outer loop
  vertex -35.226513 0.969923 12.332066
  vertex -36.903416 0.9699259 12.332195
  vertex -36.903545 0.9334717 10.655692
 endloop
endfacet
facet normal -1.19673915e-08 -0.9997637 0.02173904
 outer loop
  vertex -35.226513 0.969923 12.332066
  vertex -36.903545 0.9334717 10.655692
  vertex -35.226646 0.9334688 10.655561
 endloop
endfacet
facet normal 7.794472e-05 0.021739246 0.9997636
 outer loop
  vertex -35.22652 41.685 11.44674
  vertex -36.90342 41.685005 11.446871
  vertex -36.903416 0.9699259 12.332195
 endloop
endfacet
facet normal 7.7363606e-05 0.02173927 0.9997636
 outer loop
  vertex -35.22652 41.685 11.44674
  vertex -36.903416 0.9699259 12.332195
  vertex -35.226513 0.969923 12.332066
 endloop
endfacet
facet normal -1 1.4941247e-06 7.733074e-05
 outer loop
  vertex -46.78493 0.96994305 12.332961
  vertex -46.78494 41.685024 11.447637
  vertex -46.78507 41.64857 9.771133
 endloop
endfacet
facet normal -1 1.4941248e-06 7.733075e-05
 outer loop
  vertex -46.78493 0.96994305 12.332961
  vertex -46.78507 41.64857 9.771133
  vertex -46.78506 0.93348885 10.656458
 endloop
endfacet
facet normal -7.737614e-05 -0.021739246 -0.9997636
 outer loop
  vertex -45.108162 0.93348503 10.656328
  vertex -46.78506 0.93348885 10.656458
  vertex -46.78507 41.64857 9.771133
 endloop
endfacet
facet normal -7.737615e-05 -0.021739244 -0.9997636
 outer loop
  vertex -45.108162 0.93348503 10.656328
  vertex -46.78507 41.64857 9.771133
  vertex -45.10817 41.648567 9.771004
 endloop
endfacet
facet normal 5.9295235e-07 0.9997637 -0.02173848
 outer loop
  vertex -45.10817 41.648567 9.771004
  vertex -46.78507 41.64857 9.771133
  vertex -46.78494 41.685024 11.447637
 endloop
endfacet
facet normal 5.9295235e-07 0.9997637 -0.02173848
 outer loop
  vertex -45.10817 41.648567 9.771004
  vertex -46.78494 41.685024 11.447637
  vertex -45.10804 41.68502 11.447507
 endloop
endfacet
facet normal 1 -1.4941247e-06 -7.733074e-05
 outer loop
  vertex -45.10804 41.68502 11.447507
  vertex -45.108032 0.96993923 12.332831
  vertex -45.108162 0.93348503 10.656328
 endloop
endfacet
facet normal 1 -1.4941247e-06 -7.733074e-05
 outer loop
  vertex -45.10804 41.68502 11.447507
  vertex -45.108162 0.93348503 10.656328
  vertex -45.10817 41.648567 9.771004
 endloop
endfacet
facet normal -5.9290835e-07 -0.9997637 0.021739049
 outer loop
  vertex -45.108032 0.96993923 12.332831
  vertex -46.78493 0.96994305 12.332961
  vertex -46.78506 0.93348885 10.656458
 endloop
endfacet
facet normal -5.929084e-07 -0.9997637 0.02173905
 outer loop
  vertex -45.108032 0.96993923 12.332831
  vertex -46.78506 0.93348885 10.656458
  vertex -45.108162 0.93348503 10.656328
 endloop
endfacet
facet normal 7.737614e-05 0.021739246 0.9997636
 outer loop
  vertex -45.10804 41.68502 11.447507
  vertex -46.78494 41.685024 11.447637
  vertex -46.78493 0.96994305 12.332961
 endloop
endfacet
facet normal 7.737614e-05 0.021739246 0.9997636
 outer loop
  vertex -45.10804 41.68502 11.447507
  vertex -46.78493 0.96994305 12.332961
  vertex -45.108032 0.96993923 12.332831
 endloop
endfacet
facet normal -1 1.587772e-06 7.732867e-05
 outer loop
  vertex -46.786682 0.4789505 -10.24721
  vertex -46.786686 41.19403 -11.132534
  vertex -46.786816 41.157578 -12.809038
 endloop
endfacet
facet normal -1 1.587772e-06 7.732867e-05
 outer loop
  vertex -46.786682 0.4789505 -10.24721
  vertex -46.786816 41.157578 -12.809038
  vertex -46.78681 0.4424963 -11.923714
 endloop
endfacet
facet normal -7.7363606e-05 -0.021739246 -0.9997636
 outer loop
  vertex -45.10991 0.44249344 -11.923843
  vertex -46.78681 0.4424963 -11.923714
  vertex -46.786816 41.157578 -12.809038
 endloop
endfacet
facet normal -7.7425786e-05 -0.021739252 -0.9997637
 outer loop
  vertex -45.10991 0.44249344 -11.923843
  vertex -46.786816 41.157578 -12.809038
  vertex -45.10992 41.15757 -12.809168
 endloop
endfacet
facet normal 2.8672744e-06 0.9997637 -0.021738468
 outer loop
  vertex -45.10992 41.15757 -12.809168
  vertex -46.786816 41.157578 -12.809038
  vertex -46.786686 41.19403 -11.132534
 endloop
endfacet
facet normal 2.8672678e-06 0.9997637 -0.021738468
 outer loop
  vertex -45.10992 41.15757 -12.809168
  vertex -46.786686 41.19403 -11.132534
  vertex -45.109787 41.194023 -11.132664
 endloop
endfacet
facet normal 1 -1.4941239e-06 -7.7330704e-05
 outer loop
  vertex -45.109787 41.194023 -11.132664
  vertex -45.10978 0.47894764 -10.247339
  vertex -45.10991 0.44249344 -11.923843
 endloop
endfacet
facet normal 1 -1.4499292e-06 -7.960705e-05
 outer loop
  vertex -45.109787 41.194023 -11.132664
  vertex -45.10991 0.44249344 -11.923843
  vertex -45.10992 41.15757 -12.809168
 endloop
endfacet
facet normal -2.433061e-08 -0.9997637 0.021739038
 outer loop
  vertex -45.10978 0.47894764 -10.247339
  vertex -46.786682 0.4789505 -10.24721
  vertex -46.78681 0.4424963 -11.923714
 endloop
endfacet
facet normal -2.433061e-08 -0.9997637 0.021739038
 outer loop
  vertex -45.10978 0.47894764 -10.247339
  vertex -46.78681 0.4424963 -11.923714
  vertex -45.10991 0.44249344 -11.923843
 endloop
endfacet
facet normal 7.74256e-05 0.021739246 0.9997636
 outer loop
  vertex -45.109787 41.194023 -11.132664
  vertex -46.786686 41.19403 -11.132534
  vertex -46.786682 0.4789505 -10.24721
 endloop
endfacet
facet normal 7.736361e-05 0.021739254 0.9997637
 outer loop
  vertex -45.109787 41.194023 -11.132664
  vertex -46.786682 0.4789505 -10.24721
  vertex -45.10978 0.47894764 -10.247339
 endloop
endfacet
facet normal -1 1.5877721e-06 7.732867e-05
 outer loop
  vertex -36.905167 0.4789343 -10.247974
  vertex -36.90517 41.19401 -11.133299
  vertex -36.9053 41.15756 -12.809803
 endloop
endfacet
facet normal -1 1.587772e-06 7.732867e-05
 outer loop
  vertex -36.905167 0.4789343 -10.247974
  vertex -36.9053 41.15756 -12.809803
  vertex -36.905296 0.44247913 -11.924479
 endloop
endfacet
facet normal -7.623899e-05 -0.021739246 -0.9997636
 outer loop
  vertex -35.228397 0.44247532 -11.924606
  vertex -36.905296 0.44247913 -11.924479
  vertex -36.9053 41.15756 -12.809803
 endloop
endfacet
facet normal -7.623899e-05 -0.021739246 -0.9997636
 outer loop
  vertex -35.228397 0.44247532 -11.924606
  vertex -36.9053 41.15756 -12.809803
  vertex -35.2284 41.157555 -12.809931
 endloop
endfacet
facet normal 6.1767923e-07 0.9997637 -0.02173847
 outer loop
  vertex -35.2284 41.157555 -12.809931
  vertex -36.9053 41.15756 -12.809803
  vertex -36.90517 41.19401 -11.133299
 endloop
endfacet
facet normal -1.6568088e-06 0.9997636 -0.021740742
 outer loop
  vertex -35.2284 41.157555 -12.809931
  vertex -36.90517 41.19401 -11.133299
  vertex -35.22827 41.19401 -11.133427
 endloop
endfacet
facet normal 1 -1.587772e-06 -7.732867e-05
 outer loop
  vertex -35.22827 41.19401 -11.133427
  vertex -35.228268 0.47893047 -10.248102
  vertex -35.228397 0.44247532 -11.924606
 endloop
endfacet
facet normal 1 -1.587772e-06 -7.732867e-05
 outer loop
  vertex -35.22827 41.19401 -11.133427
  vertex -35.228397 0.44247532 -11.924606
  vertex -35.2284 41.157555 -12.809931
 endloop
endfacet
facet normal -6.1759255e-07 -0.9997637 0.021739608
 outer loop
  vertex -35.228268 0.47893047 -10.248102
  vertex -36.905167 0.4789343 -10.247974
  vertex -36.905296 0.44247913 -11.924479
 endloop
endfacet
facet normal -6.175925e-07 -0.9997637 0.021739606
 outer loop
  vertex -35.228268 0.47893047 -10.248102
  vertex -36.905296 0.44247913 -11.924479
  vertex -35.228397 0.44247532 -11.924606
 endloop
endfacet
facet normal 7.6189535e-05 0.021739248 0.9997636
 outer loop
  vertex -35.22827 41.19401 -11.133427
  vertex -36.90517 41.19401 -11.133299
  vertex -36.905167 0.4789343 -10.247974
 endloop
endfacet
facet normal 7.623899e-05 0.021739246 0.9997636
 outer loop
  vertex -35.22827 41.19401 -11.133427
  vertex -36.905167 0.4789343 -10.247974
  vertex -35.228268 0.47893047 -10.248102
 endloop
endfacet
facet normal -1 1.5409479e-06 7.7329685e-05
 outer loop
  vertex -26.699314 0.47891712 -10.248764
  vertex -26.69932 41.193996 -11.1340885
  vertex -26.69945 41.157543 -12.810593
 endloop
endfacet
facet normal -1 1.6124987e-06 7.8465826e-05
 outer loop
  vertex -26.699314 0.47891712 -10.248764
  vertex -26.69945 41.157543 -12.810593
  vertex -26.699446 0.44246292 -11.925268
 endloop
endfacet
facet normal -7.850093e-05 -0.021739246 -0.9997636
 outer loop
  vertex -25.022547 0.44246006 -11.9254
  vertex -26.699446 0.44246292 -11.925268
  vertex -26.69945 41.157543 -12.810593
 endloop
endfacet
facet normal -7.8562756e-05 -0.021739248 -0.9997636
 outer loop
  vertex -25.022547 0.44246006 -11.9254
  vertex -26.69945 41.157543 -12.810593
  vertex -25.02255 41.157536 -12.810724
 endloop
endfacet
facet normal 2.8425422e-06 0.9997637 -0.02173847
 outer loop
  vertex -25.02255 41.157536 -12.810724
  vertex -26.69945 41.157543 -12.810593
  vertex -26.69932 41.193996 -11.1340885
 endloop
endfacet
facet normal 5.6804885e-07 0.9997636 -0.021740742
 outer loop
  vertex -25.02255 41.157536 -12.810724
  vertex -26.69932 41.193996 -11.1340885
  vertex -25.02242 41.193993 -11.13422
 endloop
endfacet
facet normal 1 -1.5656746e-06 -7.846684e-05
 outer loop
  vertex -25.02242 41.193993 -11.13422
  vertex -25.022415 0.4789133 -10.248896
  vertex -25.022547 0.44246006 -11.9254
 endloop
endfacet
facet normal 1 -1.587772e-06 -7.732866e-05
 outer loop
  vertex -25.02242 41.193993 -11.13422
  vertex -25.022547 0.44246006 -11.9254
  vertex -25.02255 41.157536 -12.810724
 endloop
endfacet
facet normal -5.6818277e-07 -0.9997637 0.021739038
 outer loop
  vertex -25.022415 0.4789133 -10.248896
  vertex -26.699314 0.47891712 -10.248764
  vertex -26.699446 0.44246292 -11.925268
 endloop
endfacet
facet normal 3.5124958e-10 -0.9997637 0.021738468
 outer loop
  vertex -25.022415 0.4789133 -10.248896
  vertex -26.699446 0.44246292 -11.925268
  vertex -25.022547 0.44246006 -11.9254
 endloop
endfacet
facet normal 7.85133e-05 0.021739246 0.9997636
 outer loop
  vertex -25.02242 41.193993 -11.13422
  vertex -26.69932 41.193996 -11.1340885
  vertex -26.699314 0.47891712 -10.248764
 endloop
endfacet
facet normal 7.85133e-05 0.021739246 0.9997636
 outer loop
  vertex -25.02242 41.193993 -11.13422
  vertex -26.699314 0.47891712 -10.248764
  vertex -25.022415 0.4789133 -10.248896
 endloop
endfacet
facet normal -1 1.3495161e-06 7.562732e-05
 outer loop
  vertex -66.365105 0.35978317 -10.00758
  vertex -66.36511 26.225832 -10.570023
  vertex -66.36526 26.18417 -12.486027
 endloop
endfacet
facet normal -1 1.7308786e-06 7.960097e-05
 outer loop
  vertex -66.365105 0.35978317 -10.00758
  vertex -66.36526 26.18417 -12.486027
  vertex -66.36526 0.31812096 -11.923584
 endloop
endfacet
facet normal -7.7654164e-05 -0.0217393 -0.99976367
 outer loop
  vertex -64.4488 0.31811714 -11.923733
  vertex -66.36526 0.31812096 -11.923584
  vertex -66.36526 26.18417 -12.486027
 endloop
endfacet
facet normal -7.665916e-05 -0.021739228 -0.99976367
 outer loop
  vertex -64.4488 0.31811714 -11.923733
  vertex -66.36526 26.18417 -12.486027
  vertex -64.4488 26.184166 -12.486174
 endloop
endfacet
facet normal 3.2406234e-07 0.99976367 -0.021739185
 outer loop
  vertex -64.4488 26.184166 -12.486174
  vertex -66.36526 26.18417 -12.486027
  vertex -66.36511 26.225832 -10.570023
 endloop
endfacet
facet normal 3.240623e-07 0.99976367 -0.021739183
 outer loop
  vertex -64.4488 26.184166 -12.486174
  vertex -66.36511 26.225832 -10.570023
  vertex -64.448654 26.225828 -10.570169
 endloop
endfacet
facet normal 1 -1.4360542e-06 -7.960738e-05
 outer loop
  vertex -64.448654 26.225828 -10.570169
  vertex -64.44865 0.35977936 -10.007729
  vertex -64.4488 0.31811714 -11.923733
 endloop
endfacet
facet normal 1 -1.644329e-06 -7.562092e-05
 outer loop
  vertex -64.448654 26.225828 -10.570169
  vertex -64.4488 0.31811714 -11.923733
  vertex -64.4488 26.184166 -12.486174
 endloop
endfacet
facet normal -3.0242649e-07 -0.99976367 0.021739185
 outer loop
  vertex -64.44865 0.35977936 -10.007729
  vertex -66.365105 0.35978317 -10.00758
  vertex -66.36526 0.31812096 -11.923584
 endloop
endfacet
facet normal -3.0242649e-07 -0.99976367 0.021739185
 outer loop
  vertex -64.44865 0.35977936 -10.007729
  vertex -66.36526 0.31812096 -11.923584
  vertex -64.4488 0.31811714 -11.923733
 endloop
endfacet
facet normal 7.6659155e-05 0.0217393 0.99976367
 outer loop
  vertex -64.448654 26.225828 -10.570169
  vertex -66.36511 26.225832 -10.570023
  vertex -66.365105 0.35978317 -10.00758
 endloop
endfacet
facet normal 7.7654164e-05 0.021739226 0.99976367
 outer loop
  vertex -64.448654 26.225828 -10.570169
  vertex -66.365105 0.35978317 -10.00758
  vertex -64.44865 0.35977936 -10.007729
 endloop
endfacet
facet normal -1.7344789e-07 0.9997637 -0.021739246
 outer loop
  vertex -64.44692 2.813734 12.210703
  vertex -64.44879 2.2877474 -11.97884
  vertex -66.36525 2.2877502 -11.978693
 endloop
endfacet
facet normal 3.0850583e-07 0.99976367 -0.02173928
 outer loop
  vertex -64.44692 2.813734 12.210703
  vertex -66.36525 2.2877502 -11.978693
  vertex -66.36337 2.8137379 12.210853
 endloop
endfacet
facet normal -1 1.6863127e-06 7.755186e-05
 outer loop
  vertex -66.36337 0.8977337 12.252515
  vertex -66.36337 2.8137379 12.210853
  vertex -66.36525 2.2877502 -11.978693
 endloop
endfacet
facet normal -1 1.6863908e-06 7.755186e-05
 outer loop
  vertex -66.36337 0.8977337 12.252515
  vertex -66.36525 2.2877502 -11.978693
  vertex -66.36525 0.37174702 -11.937029
 endloop
endfacet
facet normal -7.664834e-05 -0.021740194 -0.9997637
 outer loop
  vertex -66.36525 0.37174702 -11.937029
  vertex -66.36525 2.2877502 -11.978693
  vertex -64.44879 2.2877474 -11.97884
 endloop
endfacet
facet normal -7.7654266e-05 -0.021739185 -0.99976367
 outer loop
  vertex -66.36525 0.37174702 -11.937029
  vertex -64.44879 2.2877474 -11.97884
  vertex -64.4488 0.3717432 -11.937178
 endloop
endfacet
facet normal 1.950867e-07 -0.99976367 0.021739282
 outer loop
  vertex -64.4488 0.3717432 -11.937178
  vertex -64.446915 0.8977308 12.252366
  vertex -66.36337 0.8977337 12.252515
 endloop
endfacet
facet normal -3.0850586e-07 -0.99976367 0.021739243
 outer loop
  vertex -64.4488 0.3717432 -11.937178
  vertex -66.36337 0.8977337 12.252515
  vertex -66.36525 0.37174702 -11.937029
 endloop
endfacet
facet normal 7.8151985e-05 0.021739695 0.99976367
 outer loop
  vertex -64.446915 0.8977308 12.252366
  vertex -64.44692 2.813734 12.210703
  vertex -66.36337 2.8137379 12.210853
 endloop
endfacet
facet normal 7.764382e-05 0.021739185 0.99976367
 outer loop
  vertex -64.446915 0.8977308 12.252366
  vertex -66.36337 2.8137379 12.210853
  vertex -66.36337 0.8977337 12.252515
 endloop
endfacet
facet normal 1 -5.659506e-06 -7.715006e-05
 outer loop
  vertex -64.4488 0.3717432 -11.937178
  vertex -64.44879 2.2877474 -11.97884
  vertex -64.44692 2.813734 12.210703
 endloop
endfacet
facet normal 1 2.2868428e-06 -7.795365e-05
 outer loop
  vertex -64.4488 0.3717432 -11.937178
  vertex -64.44692 2.813734 12.210703
  vertex -64.446915 0.8977308 12.252366
 endloop
endfacet
facet normal -1.950839e-07 0.99976367 -0.02173924
 outer loop
  vertex -0.313303 2.8136244 12.205735
  vertex -0.31518173 2.2876377 -11.98381
  vertex -2.2316382 2.2876406 -11.983662
 endloop
endfacet
facet normal 3.085049e-07 0.9997637 -0.02173928
 outer loop
  vertex -0.313303 2.8136244 12.205735
  vertex -2.2316382 2.2876406 -11.983662
  vertex -2.2297595 2.8136282 12.205884
 endloop
endfacet
facet normal -1 1.56365e-06 7.7633376e-05
 outer loop
  vertex -2.2297592 0.897624 12.247546
  vertex -2.2297595 2.8136282 12.205884
  vertex -2.2316382 2.2876406 -11.983662
 endloop
endfacet
facet normal -1 1.6882414e-06 7.7640514e-05
 outer loop
  vertex -2.2297592 0.897624 12.247546
  vertex -2.2316382 2.2876406 -11.983662
  vertex -2.2316382 0.37163734 -11.941999
 endloop
endfacet
facet normal -7.7643424e-05 -0.021739196 -0.99976367
 outer loop
  vertex -2.2316382 0.37163734 -11.941999
  vertex -2.2316382 2.2876406 -11.983662
  vertex -0.31518173 2.2876377 -11.98381
 endloop
endfacet
facet normal -7.764392e-05 -0.021739196 -0.99976367
 outer loop
  vertex -2.2316382 0.37163734 -11.941999
  vertex -0.31518173 2.2876377 -11.98381
  vertex -0.31518173 0.37163448 -11.942148
 endloop
endfacet
facet normal 1.9508393e-07 -0.9997637 0.021739243
 outer loop
  vertex -0.31518173 0.37163448 -11.942148
  vertex -0.313303 0.89762115 12.247397
  vertex -2.2297592 0.897624 12.247546
 endloop
endfacet
facet normal 2.0566992e-07 -0.9997637 0.021739244
 outer loop
  vertex -0.31518173 0.37163448 -11.942148
  vertex -2.2297592 0.897624 12.247546
  vertex -2.2316382 0.37163734 -11.941999
 endloop
endfacet
facet normal 7.765424e-05 0.021739196 0.99976367
 outer loop
  vertex -0.313303 0.89762115 12.247397
  vertex -0.313303 2.8136244 12.205735
  vertex -2.2297595 2.8136282 12.205884
 endloop
endfacet
facet normal 7.764389e-05 0.021739187 0.99976367
 outer loop
  vertex -0.313303 0.89762115 12.247397
  vertex -2.2297595 2.8136282 12.205884
  vertex -2.2297592 0.897624 12.247546
 endloop
endfacet
facet normal 1 -1.6880273e-06 -7.763067e-05
 outer loop
  vertex -0.31518173 0.37163448 -11.942148
  vertex -0.31518173 2.2876377 -11.98381
  vertex -0.313303 2.8136244 12.205735
 endloop
endfacet
facet normal 1 -1.6880272e-06 -7.763066e-05
 outer loop
  vertex -0.31518173 0.37163448 -11.942148
  vertex -0.313303 2.8136244 12.205735
  vertex -0.313303 0.89762115 12.247397
 endloop
endfacet
facet normal -1.950839e-07 0.99976367 -0.02173924
 outer loop
  vertex -0.313303 2.8136244 12.205735
  vertex -0.31518173 2.2876377 -11.98381
  vertex -2.2316382 2.2876406 -11.983662
 endloop
endfacet
facet normal 3.085049e-07 0.9997637 -0.02173928
 outer loop
  vertex -0.313303 2.8136244 12.205735
  vertex -2.2316382 2.2876406 -11.983662
  vertex -2.2297595 2.8136282 12.205884
 endloop
endfacet
facet normal -1 1.56365e-06 7.7633376e-05
 outer loop
  vertex -2.2297592 0.897624 12.247546
  vertex -2.2297595 2.8136282 12.205884
  vertex -2.2316382 2.2876406 -11.983662
 endloop
endfacet
facet normal -1 1.6882414e-06 7.7640514e-05
 outer loop
  vertex -2.2297592 0.897624 12.247546
  vertex -2.2316382 2.2876406 -11.983662
  vertex -2.2316382 0.37163734 -11.941999
 endloop
endfacet
facet normal -7.7643424e-05 -0.021739196 -0.99976367
 outer loop
  vertex -2.2316382 0.37163734 -11.941999
  vertex -2.2316382 2.2876406 -11.983662
  vertex -0.31518173 2.2876377 -11.98381
 endloop
endfacet
facet normal -7.764392e-05 -0.021739196 -0.99976367
 outer loop
  vertex -2.2316382 0.37163734 -11.941999
  vertex -0.31518173 2.2876377 -11.98381
  vertex -0.31518173 0.37163448 -11.942148
 endloop
endfacet
facet normal 1.9508393e-07 -0.9997637 0.021739243
 outer loop
  vertex -0.31518173 0.37163448 -11.942148
  vertex -0.313303 0.89762115 12.247397
  vertex -2.2297592 0.897624 12.247546
 endloop
endfacet
facet normal 2.0566992e-07 -0.9997637 0.021739244
 outer loop
  vertex -0.31518173 0.37163448 -11.942148
  vertex -2.2297592 0.897624 12.247546
  vertex -2.2316382 0.37163734 -11.941999
 endloop
endfacet
facet normal 7.765424e-05 0.021739196 0.99976367
 outer loop
  vertex -0.313303 0.89762115 12.247397
  vertex -0.313303 2.8136244 12.205735
  vertex -2.2297595 2.8136282 12.205884
 endloop
endfacet
facet normal 7.764389e-05 0.021739187 0.99976367
 outer loop
  vertex -0.313303 0.89762115 12.247397
  vertex -2.2297595 2.8136282 12.205884
  vertex -2.2297592 0.897624 12.247546
 endloop
endfacet
facet normal 1 -1.6880273e-06 -7.763067e-05
 outer loop
  vertex -0.31518173 0.37163448 -11.942148
  vertex -0.31518173 2.2876377 -11.98381
  vertex -0.313303 2.8136244 12.205735
 endloop
endfacet
facet normal 1 -1.6880272e-06 -7.763066e-05
 outer loop
  vertex -0.31518173 0.37163448 -11.942148
  vertex -0.313303 2.8136244 12.205735
  vertex -0.313303 0.89762115 12.247397
 endloop
endfacet
facet normal 3.0241927e-07 0.99976367 -0.021739282
 outer loop
  vertex -5.066761 26.757193 11.685466
  vertex -5.06864 26.231205 -12.50408
  vertex -6.985097 26.231209 -12.503931
 endloop
endfacet
facet normal 3.0850484e-07 0.99976367 -0.02173928
 outer loop
  vertex -5.066761 26.757193 11.685466
  vertex -6.985097 26.231209 -12.503931
  vertex -6.9832177 26.757196 11.685615
 endloop
endfacet
facet normal -1 1.6884549e-06 7.765037e-05
 outer loop
  vertex -6.9832177 24.841192 11.727277
  vertex -6.9832177 26.757196 11.685615
  vertex -6.985097 26.231209 -12.503931
 endloop
endfacet
facet normal -1 1.4393507e-06 7.7636076e-05
 outer loop
  vertex -6.9832177 24.841192 11.727277
  vertex -6.985097 26.231209 -12.503931
  vertex -6.9850965 24.315205 -12.462267
 endloop
endfacet
facet normal -7.765423e-05 -0.021740181 -0.99976367
 outer loop
  vertex -6.9850965 24.315205 -12.462267
  vertex -6.985097 26.231209 -12.503931
  vertex -5.06864 26.231205 -12.50408
 endloop
endfacet
facet normal -7.865007e-05 -0.021739185 -0.99976367
 outer loop
  vertex -6.9850965 24.315205 -12.462267
  vertex -5.06864 26.231205 -12.50408
  vertex -5.06864 24.3152 -12.462418
 endloop
endfacet
facet normal 6.925993e-07 -0.9997637 0.021739362
 outer loop
  vertex -5.06864 24.3152 -12.462418
  vertex -5.0667615 24.84119 11.727128
  vertex -6.9832177 24.841192 11.727277
 endloop
endfacet
facet normal -3.0850495e-07 -0.9997637 0.021739284
 outer loop
  vertex -5.06864 24.3152 -12.462418
  vertex -6.9832177 24.841192 11.727277
  vertex -6.9850965 24.315205 -12.462267
 endloop
endfacet
facet normal 7.765424e-05 0.02173921 0.9997637
 outer loop
  vertex -5.0667615 24.84119 11.727128
  vertex -5.066761 26.757193 11.685466
  vertex -6.9832177 26.757196 11.685615
 endloop
endfacet
facet normal 7.763172e-05 0.021739185 0.99976367
 outer loop
  vertex -5.0667615 24.84119 11.727128
  vertex -6.9832177 26.757196 11.685615
  vertex -6.9832177 24.841192 11.727277
 endloop
endfacet
facet normal 1 -1.6884549e-06 -7.765037e-05
 outer loop
  vertex -5.06864 24.3152 -12.462418
  vertex -5.06864 26.231205 -12.50408
  vertex -5.066761 26.757193 11.685466
 endloop
endfacet
facet normal 1 -1.9367812e-06 -7.762525e-05
 outer loop
  vertex -5.06864 24.3152 -12.462418
  vertex -5.066761 26.757193 11.685466
  vertex -5.0667615 24.84119 11.727128
 endloop
endfacet
facet normal 5.9289647e-07 0.9997636 -0.021739202
 outer loop
  vertex -25.018232 41.67902 11.362545
  vertex -25.020111 41.153034 -12.827
  vertex -26.69701 41.153038 -12.82687
 endloop
endfacet
facet normal 5.8762845e-07 0.9997636 -0.021739202
 outer loop
  vertex -25.018232 41.67902 11.362545
  vertex -26.69701 41.153038 -12.82687
  vertex -26.695131 41.679024 11.362676
 endloop
endfacet
facet normal -1 1.6880168e-06 7.763068e-05
 outer loop
  vertex -26.695131 40.00252 11.39913
  vertex -26.695131 41.679024 11.362676
  vertex -26.69701 41.153038 -12.82687
 endloop
endfacet
facet normal -1 1.6880608e-06 7.763067e-05
 outer loop
  vertex -26.695131 40.00252 11.39913
  vertex -26.69701 41.153038 -12.82687
  vertex -26.69701 39.476536 -12.790415
 endloop
endfacet
facet normal -7.737615e-05 -0.021739632 -0.9997637
 outer loop
  vertex -26.69701 39.476536 -12.790415
  vertex -26.69701 41.153038 -12.82687
  vertex -25.020111 41.153034 -12.827
 endloop
endfacet
facet normal -7.8562414e-05 -0.021738444 -0.9997637
 outer loop
  vertex -26.69701 39.476536 -12.790415
  vertex -25.020111 41.153034 -12.827
  vertex -25.020111 39.47653 -12.790546
 endloop
endfacet
facet normal -5.928845e-07 -0.9997637 0.02173936
 outer loop
  vertex -25.020111 39.47653 -12.790546
  vertex -25.018232 40.002518 11.399
  vertex -26.695131 40.00252 11.39913
 endloop
endfacet
facet normal -2.844122e-06 -0.9997636 0.021739203
 outer loop
  vertex -25.020111 39.47653 -12.790546
  vertex -26.695131 40.00252 11.39913
  vertex -26.69701 39.476536 -12.790415
 endloop
endfacet
facet normal 7.794473e-05 0.021739632 0.9997637
 outer loop
  vertex -25.018232 40.002518 11.399
  vertex -25.018232 41.67902 11.362545
  vertex -26.695131 41.679024 11.362676
 endloop
endfacet
facet normal 7.7376906e-05 0.021739062 0.9997637
 outer loop
  vertex -25.018232 40.002518 11.399
  vertex -26.695131 41.679024 11.362676
  vertex -26.695131 40.00252 11.39913
 endloop
endfacet
facet normal 1 -1.687969e-06 -7.763067e-05
 outer loop
  vertex -25.020111 39.47653 -12.790546
  vertex -25.020111 41.153034 -12.827
  vertex -25.018232 41.67902 11.362545
 endloop
endfacet
facet normal 1 -1.6880608e-06 -7.763067e-05
 outer loop
  vertex -25.020111 39.47653 -12.790546
  vertex -25.018232 41.67902 11.362545
  vertex -25.018232 40.002518 11.399
 endloop
endfacet
facet normal 2.8424724e-06 0.9997637 -0.02173936
 outer loop
  vertex -35.23257 41.67904 11.3633375
  vertex -35.23445 41.15305 -12.82621
  vertex -36.91135 41.153057 -12.826078
 endloop
endfacet
facet normal 5.8762845e-07 0.9997636 -0.021739202
 outer loop
  vertex -35.23257 41.67904 11.3633375
  vertex -36.91135 41.153057 -12.826078
  vertex -36.90947 41.679043 11.363467
 endloop
endfacet
facet normal -1 1.6897305e-06 7.770949e-05
 outer loop
  vertex -36.90947 40.00254 11.399921
  vertex -36.90947 41.679043 11.363467
  vertex -36.91135 41.153057 -12.826078
 endloop
endfacet
facet normal -1 1.6897709e-06 7.7709476e-05
 outer loop
  vertex -36.90947 40.00254 11.399921
  vertex -36.91135 41.153057 -12.826078
  vertex -36.91135 39.47655 -12.789623
 endloop
endfacet
facet normal -7.856276e-05 -0.021739582 -0.9997637
 outer loop
  vertex -36.91135 39.47655 -12.789623
  vertex -36.91135 41.153057 -12.826078
  vertex -35.23445 41.15305 -12.82621
 endloop
endfacet
facet normal -7.846341e-05 -0.021739682 -0.9997637
 outer loop
  vertex -36.91135 39.47655 -12.789623
  vertex -35.23445 41.15305 -12.82621
  vertex -35.23445 39.47655 -12.789755
 endloop
endfacet
facet normal -5.9289664e-07 -0.9997637 0.021739202
 outer loop
  vertex -35.23445 39.47655 -12.789755
  vertex -35.23257 40.002537 11.399792
  vertex -36.90947 40.00254 11.399921
 endloop
endfacet
facet normal 1.7158751e-06 -0.9997636 0.02173936
 outer loop
  vertex -35.23445 39.47655 -12.789755
  vertex -36.90947 40.00254 11.399921
  vertex -36.91135 39.47655 -12.789623
 endloop
endfacet
facet normal 7.737615e-05 0.021739062 0.9997637
 outer loop
  vertex -35.23257 40.002537 11.399792
  vertex -35.23257 41.67904 11.3633375
  vertex -36.90947 41.679043 11.363467
 endloop
endfacet
facet normal 7.7376906e-05 0.021739062 0.9997637
 outer loop
  vertex -35.23257 40.002537 11.399792
  vertex -36.90947 41.679043 11.363467
  vertex -36.90947 40.00254 11.399921
 endloop
endfacet
facet normal 1 -1.6897782e-06 -7.770946e-05
 outer loop
  vertex -35.23445 39.47655 -12.789755
  vertex -35.23445 41.15305 -12.82621
  vertex -35.23257 41.67904 11.3633375
 endloop
endfacet
facet normal 1 -1.6897304e-06 -7.770948e-05
 outer loop
  vertex -35.23445 39.47655 -12.789755
  vertex -35.23257 41.67904 11.3633375
  vertex -35.23257 40.002537 11.399792
 endloop
endfacet
facet normal 2.8424845e-06 0.9997637 -0.021739202
 outer loop
  vertex -45.116222 41.679054 11.364103
  vertex -45.1181 41.15307 -12.825443
  vertex -46.795 41.153076 -12.825312
 endloop
endfacet
facet normal 2.867627e-06 0.9997636 -0.021739202
 outer loop
  vertex -45.116222 41.679054 11.364103
  vertex -46.795 41.153076 -12.825312
  vertex -46.79312 41.67906 11.364234
 endloop
endfacet
facet normal -1 3.9606093e-06 7.75024e-05
 outer loop
  vertex -46.793125 40.002556 11.400688
  vertex -46.79312 41.67906 11.364234
  vertex -46.795 41.153076 -12.825312
 endloop
endfacet
facet normal -1 3.9606534e-06 7.75024e-05
 outer loop
  vertex -46.793125 40.002556 11.400688
  vertex -46.795 41.153076 -12.825312
  vertex -46.795002 39.47657 -12.7888565
 endloop
endfacet
facet normal -7.856276e-05 -0.021739582 -0.9997637
 outer loop
  vertex -46.795002 39.47657 -12.7888565
  vertex -46.795 41.153076 -12.825312
  vertex -45.1181 41.15307 -12.825443
 endloop
endfacet
facet normal -7.851357e-05 -0.021739632 -0.9997637
 outer loop
  vertex -46.795002 39.47657 -12.7888565
  vertex -45.1181 41.15307 -12.825443
  vertex -45.118103 39.476566 -12.788988
 endloop
endfacet
facet normal -5.805331e-07 -0.9997636 0.021739202
 outer loop
  vertex -45.118103 39.476566 -12.788988
  vertex -45.116226 40.002552 11.4005575
  vertex -46.793125 40.002556 11.400688
 endloop
endfacet
facet normal -5.641234e-07 -0.9997636 0.021739203
 outer loop
  vertex -45.118103 39.476566 -12.788988
  vertex -46.793125 40.002556 11.400688
  vertex -46.795002 39.47657 -12.7888565
 endloop
endfacet
facet normal 7.7994184e-05 0.021739062 0.9997637
 outer loop
  vertex -45.116226 40.002552 11.4005575
  vertex -45.116222 41.679054 11.364103
  vertex -46.79312 41.67906 11.364234
 endloop
endfacet
facet normal 7.7945064e-05 0.021739012 0.9997637
 outer loop
  vertex -45.116226 40.002552 11.4005575
  vertex -46.79312 41.67906 11.364234
  vertex -46.793125 40.002556 11.400688
 endloop
endfacet
facet normal 1 -3.960662e-06 -7.7502395e-05
 outer loop
  vertex -45.118103 39.476566 -12.788988
  vertex -45.1181 41.15307 -12.825443
  vertex -45.116222 41.679054 11.364103
 endloop
endfacet
facet normal 1 -3.960618e-06 -7.75024e-05
 outer loop
  vertex -45.118103 39.476566 -12.788988
  vertex -45.116222 41.679054 11.364103
  vertex -45.116226 40.002552 11.4005575
 endloop
endfacet
facet normal -4.791992e-09 0.9997634 -0.021751989
 outer loop
  vertex -66.18272 25.469769 -10.629286
  vertex -5.095665 25.469666 -10.634033
  vertex -5.095674 25.46706 -10.753784
 endloop
endfacet
facet normal 6.0115234e-08 0.9997641 -0.021720156
 outer loop
  vertex -66.18272 25.469769 -10.629286
  vertex -5.095674 25.46706 -10.753784
  vertex -66.182724 25.467167 -10.749037
 endloop
endfacet
facet normal -7.773482e-05 -0.02173923 -0.99976367
 outer loop
  vertex -66.182724 1.5171194 -10.228258
  vertex -66.182724 25.467167 -10.749037
  vertex -5.095674 25.46706 -10.753784
 endloop
endfacet
facet normal -7.770312e-05 -0.021739313 -0.99976367
 outer loop
  vertex -66.182724 1.5171194 -10.228258
  vertex -5.095674 25.46706 -10.753784
  vertex -5.0956717 1.5170155 -10.233004
 endloop
endfacet
facet normal 1 -1.5448237e-06 -7.562261e-05
 outer loop
  vertex -5.0956717 1.5170155 -10.233004
  vertex -5.095674 25.46706 -10.753784
  vertex -5.095665 25.469666 -10.634033
 endloop
endfacet
facet normal 1 -1.6114675e-06 -7.9603094e-05
 outer loop
  vertex -5.0956717 1.5170155 -10.233004
  vertex -5.095665 25.469666 -10.634033
  vertex -5.095662 1.51962 -10.113253
 endloop
endfacet
facet normal 2.8757927e-09 -0.9997638 0.02173607
 outer loop
  vertex -5.095662 1.51962 -10.113253
  vertex -66.18272 1.5197229 -10.108507
  vertex -66.182724 1.5171194 -10.228258
 endloop
endfacet
facet normal -1.2113729e-08 -0.99976355 0.02174403
 outer loop
  vertex -5.095662 1.51962 -10.113253
  vertex -66.182724 1.5171194 -10.228258
  vertex -5.0956717 1.5170155 -10.233004
 endloop
endfacet
facet normal -1 1.3846904e-06 6.368041e-05
 outer loop
  vertex -66.18272 1.5197229 -10.108507
  vertex -66.18272 25.469769 -10.629286
  vertex -66.182724 25.467167 -10.749037
 endloop
endfacet
facet normal -1 1.3846906e-06 6.368042e-05
 outer loop
  vertex -66.18272 1.5197229 -10.108507
  vertex -66.182724 25.467167 -10.749037
  vertex -66.182724 1.5171194 -10.228258
 endloop
endfacet
facet normal 7.773346e-05 0.02173931 0.99976367
 outer loop
  vertex -5.095662 1.51962 -10.113253
  vertex -5.095665 25.469666 -10.634033
  vertex -66.18272 25.469769 -10.629286
 endloop
endfacet
facet normal 7.770245e-05 0.02173923 0.99976367
 outer loop
  vertex -5.095662 1.51962 -10.113253
  vertex -66.18272 25.469769 -10.629286
  vertex -66.18272 1.5197229 -10.108507
 endloop
endfacet
facet normal -1.5577472e-06 0.99976367 -0.021739226
 outer loop
  vertex -64.61494 25.93573 10.799642
  vertex -64.495155 25.93573 10.799633
  vertex -64.496925 25.44099 -11.952908
 endloop
endfacet
facet normal -1.3846641e-06 0.99976367 -0.021739226
 outer loop
  vertex -64.61494 25.93573 10.799642
  vertex -64.496925 25.44099 -11.952908
  vertex -64.61671 25.44099 -11.9529
 endloop
endfacet
facet normal -6.367922e-05 -0.02173931 -0.99976367
 outer loop
  vertex -64.61671 1.490942 -11.432119
  vertex -64.61671 25.44099 -11.9529
  vertex -64.496925 25.44099 -11.952908
 endloop
endfacet
facet normal -9.571804e-05 -0.021739148 -0.99976367
 outer loop
  vertex -64.61671 1.490942 -11.432119
  vertex -64.496925 25.44099 -11.952908
  vertex -64.496925 1.490941 -11.432131
 endloop
endfacet
facet normal 1 -1.6907836e-06 -7.7757606e-05
 outer loop
  vertex -64.496925 1.490941 -11.432131
  vertex -64.496925 25.44099 -11.952908
  vertex -64.495155 25.93573 10.799633
 endloop
endfacet
facet normal 1 -1.6907896e-06 -7.775759e-05
 outer loop
  vertex -64.496925 1.490941 -11.432131
  vertex -64.495155 25.93573 10.799633
  vertex -64.495155 1.9856815 11.320412
 endloop
endfacet
facet normal -6.2290687e-06 -0.99976367 0.021739269
 outer loop
  vertex -64.495155 1.9856815 11.320412
  vertex -64.61494 1.9856825 11.320421
  vertex -64.61671 1.490942 -11.432119
 endloop
endfacet
facet normal -5.882902e-06 -0.99976367 0.021739265
 outer loop
  vertex -64.495155 1.9856815 11.320412
  vertex -64.61671 1.490942 -11.432119
  vertex -64.496925 1.490941 -11.432131
 endloop
endfacet
facet normal -1 1.6907933e-06 7.7757606e-05
 outer loop
  vertex -64.61494 1.9856825 11.320421
  vertex -64.61494 25.93573 10.799642
  vertex -64.61671 25.44099 -11.9529
 endloop
endfacet
facet normal -1 1.6907962e-06 7.7757606e-05
 outer loop
  vertex -64.61494 1.9856825 11.320421
  vertex -64.61671 25.44099 -11.9529
  vertex -64.61671 1.490942 -11.432119
 endloop
endfacet
facet normal 7.1639115e-05 0.02173923 0.99976367
 outer loop
  vertex -64.495155 1.9856815 11.320412
  vertex -64.495155 25.93573 10.799633
  vertex -64.61494 25.93573 10.799642
 endloop
endfacet
facet normal 8.00974e-05 0.02173927 0.99976367
 outer loop
  vertex -64.495155 1.9856815 11.320412
  vertex -64.61494 25.93573 10.799642
  vertex -64.61494 1.9856825 11.320421
 endloop
endfacet
facet normal 4.359553e-08 0.9997638 -0.021736246
 outer loop
  vertex -66.1811 6.89855 10.636194
  vertex -5.094047 6.898444 10.631448
  vertex -5.094056 6.8958406 10.511698
 endloop
endfacet
facet normal 4.359553e-08 0.9997638 -0.021736246
 outer loop
  vertex -66.1811 6.89855 10.636194
  vertex -5.094056 6.8958406 10.511698
  vertex -66.18111 6.8959465 10.516444
 endloop
endfacet
facet normal -7.771887e-05 -0.021739185 -0.9997636
 outer loop
  vertex -66.18111 2.105936 10.6206
  vertex -66.18111 6.8959465 10.516444
  vertex -5.094056 6.8958406 10.511698
 endloop
endfacet
facet normal -7.771847e-05 -0.021739192 -0.9997637
 outer loop
  vertex -66.18111 2.105936 10.6206
  vertex -5.094056 6.8958406 10.511698
  vertex -5.094055 2.1058311 10.615853
 endloop
endfacet
facet normal 1 -1.4453269e-06 -7.562539e-05
 outer loop
  vertex -5.094055 2.1058311 10.615853
  vertex -5.094056 6.8958406 10.511698
  vertex -5.094047 6.898444 10.631448
 endloop
endfacet
facet normal 1 -1.445327e-06 -7.56254e-05
 outer loop
  vertex -5.094055 2.1058311 10.615853
  vertex -5.094047 6.898444 10.631448
  vertex -5.094046 2.1084347 10.735603
 endloop
endfacet
facet normal -2.7661608e-08 -0.9997638 0.021736072
 outer loop
  vertex -5.094046 2.1084347 10.735603
  vertex -66.1811 2.1085396 10.740351
  vertex -66.18111 2.105936 10.6206
 endloop
endfacet
facet normal -2.7987495e-08 -0.9997638 0.021736246
 outer loop
  vertex -5.094046 2.1084347 10.735603
  vertex -66.18111 2.105936 10.6206
  vertex -5.094055 2.1058311 10.615853
 endloop
endfacet
facet normal -1 1.3847108e-06 6.36809e-05
 outer loop
  vertex -66.1811 2.1085396 10.740351
  vertex -66.1811 6.89855 10.636194
  vertex -66.18111 6.8959465 10.516444
 endloop
endfacet
facet normal -1 1.3846872e-06 6.3680396e-05
 outer loop
  vertex -66.1811 2.1085396 10.740351
  vertex -66.18111 6.8959465 10.516444
  vertex -66.18111 2.105936 10.6206
 endloop
endfacet
facet normal 7.7718876e-05 0.021739192 0.9997637
 outer loop
  vertex -5.094046 2.1084347 10.735603
  vertex -5.094047 6.898444 10.631448
  vertex -66.1811 6.89855 10.636194
 endloop
endfacet
facet normal 7.773413e-05 0.021739384 0.9997636
 outer loop
  vertex -5.094046 2.1084347 10.735603
  vertex -66.1811 6.89855 10.636194
  vertex -66.1811 2.1085396 10.740351
 endloop
endfacet
facet normal -8.913603e-07 0.9997637 -0.021736242
 outer loop
  vertex -64.86021 25.82972 10.224436
  vertex -62.464638 25.829718 10.22425
  vertex -62.464645 25.827114 10.1045
 endloop
endfacet
facet normal -9.411341e-08 0.99976414 -0.021720327
 outer loop
  vertex -64.86021 25.82972 10.224436
  vertex -62.464645 25.827114 10.1045
  vertex -64.86022 25.827118 10.104686
 endloop
endfacet
facet normal -7.7645396e-05 -0.021739231 -0.99976367
 outer loop
  vertex -64.860214 1.8770714 10.625464
  vertex -64.86022 25.827118 10.104686
  vertex -62.464645 25.827114 10.1045
 endloop
endfacet
facet normal -7.7639954e-05 -0.02173923 -0.99976367
 outer loop
  vertex -64.860214 1.8770714 10.625464
  vertex -62.464645 25.827114 10.1045
  vertex -62.464645 1.8770666 10.625278
 endloop
endfacet
facet normal 1 -1.384701e-06 -6.36809e-05
 outer loop
  vertex -62.464645 1.8770666 10.625278
  vertex -62.464645 25.827114 10.1045
  vertex -62.464638 25.829718 10.22425
 endloop
endfacet
facet normal 1 -1.3847007e-06 -6.368088e-05
 outer loop
  vertex -62.464645 1.8770666 10.625278
  vertex -62.464638 25.829718 10.22425
  vertex -62.464638 1.8796701 10.7450285
 endloop
endfacet
facet normal -6.913997e-07 -0.9997636 0.02174403
 outer loop
  vertex -62.464638 1.8796701 10.7450285
  vertex -64.86021 1.8796759 10.745215
  vertex -64.860214 1.8770714 10.625464
 endloop
endfacet
facet normal -3.0265542e-07 -0.9997637 0.021736246
 outer loop
  vertex -62.464638 1.8796701 10.7450285
  vertex -64.860214 1.8770714 10.625464
  vertex -62.464645 1.8770666 10.625278
 endloop
endfacet
facet normal -1 2.7694084e-06 0.00012736184
 outer loop
  vertex -64.86021 1.8796759 10.745215
  vertex -64.86021 25.82972 10.224436
  vertex -64.86022 25.827118 10.104686
 endloop
endfacet
facet normal -1 1.0662858e-06 6.36873e-05
 outer loop
  vertex -64.86021 1.8796759 10.745215
  vertex -64.86022 25.827118 10.104686
  vertex -64.860214 1.8770714 10.625464
 endloop
endfacet
facet normal 7.7628334e-05 0.02173923 0.99976367
 outer loop
  vertex -62.464638 1.8796701 10.7450285
  vertex -62.464638 25.829718 10.22425
  vertex -64.86021 25.82972 10.224436
 endloop
endfacet
facet normal 7.8088655e-05 0.021739272 0.99976367
 outer loop
  vertex -62.464638 1.8796701 10.7450285
  vertex -64.86021 25.82972 10.224436
  vertex -64.86021 1.8796759 10.745215
 endloop
endfacet
facet normal -0.98162717 -0.19076233 0.004224029
 outer loop
  vertex -2.2121184 1.7354593 -10.043106
  vertex -6.897358 25.83323 -10.566734
  vertex -6.8975067 25.791569 -12.4827385
 endloop
endfacet
facet normal -0.98162717 -0.1907623 0.0042242464
 outer loop
  vertex -2.2121184 1.7354593 -10.043106
  vertex -6.8975067 25.791569 -12.4827385
  vertex -2.2122674 1.6937971 -11.95911
 endloop
endfacet
facet normal -7.723535e-05 -0.021739203 -0.9997636
 outer loop
  vertex -0.33102155 2.0593843 -11.967205
  vertex -2.2122674 1.6937971 -11.95911
  vertex -6.8975067 25.791569 -12.4827385
 endloop
endfacet
facet normal -7.725691e-05 -0.02173921 -0.9997636
 outer loop
  vertex -0.33102155 2.0593843 -11.967205
  vertex -6.8975067 25.791569 -12.4827385
  vertex -5.016261 26.157154 -12.490833
 endloop
endfacet
facet normal -0.19080788 0.9813957 -0.021323996
 outer loop
  vertex -5.016261 26.157154 -12.490833
  vertex -6.8975067 25.791569 -12.4827385
  vertex -6.897358 25.83323 -10.566734
 endloop
endfacet
facet normal -0.1908098 0.98139536 -0.021325937
 outer loop
  vertex -5.016261 26.157154 -12.490833
  vertex -6.897358 25.83323 -10.566734
  vertex -5.0161123 26.198818 -10.574829
 endloop
endfacet
facet normal 0.98162717 0.19076233 -0.004224341
 outer loop
  vertex -5.0161123 26.198818 -10.574829
  vertex -0.33087254 2.1010466 -10.051201
  vertex -0.33102155 2.0593843 -11.967205
 endloop
endfacet
facet normal 0.98162717 0.19076231 -0.0042244084
 outer loop
  vertex -5.0161123 26.198818 -10.574829
  vertex -0.33102155 2.0593843 -11.967205
  vertex -5.016261 26.157154 -12.490833
 endloop
endfacet
facet normal 0.19080882 -0.98139554 0.021324944
 outer loop
  vertex -0.33087254 2.1010466 -10.051201
  vertex -2.2121184 1.7354593 -10.043106
  vertex -2.2122674 1.6937971 -11.95911
 endloop
endfacet
facet normal 0.19080882 -0.98139554 0.021324947
 outer loop
  vertex -0.33087254 2.1010466 -10.051201
  vertex -2.2122674 1.6937971 -11.95911
  vertex -0.33102155 2.0593843 -11.967205
 endloop
endfacet
facet normal 7.7214136e-05 0.021739202 0.9997636
 outer loop
  vertex -5.0161123 26.198818 -10.574829
  vertex -6.897358 25.83323 -10.566734
  vertex -2.2121184 1.7354593 -10.043106
 endloop
endfacet
facet normal 7.7235985e-05 0.021739202 0.9997637
 outer loop
  vertex -5.0161123 26.198818 -10.574829
  vertex -2.2121184 1.7354593 -10.043106
  vertex -0.33087254 2.1010466 -10.051201
 endloop
endfacet
facet normal -0.08715552 0.9959595 -0.021646595
 outer loop
  vertex -6.976813 16.42194 10.265051
  vertex -3.3971303 16.73504 10.257965
  vertex -3.3971395 16.732437 10.138214
 endloop
endfacet
facet normal -0.08715553 0.9959595 -0.021646533
 outer loop
  vertex -6.976813 16.42194 10.265051
  vertex -3.3971395 16.732437 10.138214
  vertex -6.9768224 16.419336 10.145301
 endloop
endfacet
facet normal -7.7801786e-05 -0.02173924 -0.9997637
 outer loop
  vertex -5.6301413 1.0303373 10.47982
  vertex -6.9768224 16.419336 10.145301
  vertex -3.3971395 16.732437 10.138214
 endloop
endfacet
facet normal -7.752549e-05 -0.021739278 -0.99976367
 outer loop
  vertex -5.6301413 1.0303373 10.47982
  vertex -3.3971395 16.732437 10.138214
  vertex -2.0504584 1.3434391 10.472734
 endloop
endfacet
facet normal 0.9961947 0.087133475 -0.0019717389
 outer loop
  vertex -2.0504584 1.3434391 10.472734
  vertex -3.3971395 16.732437 10.138214
  vertex -3.3971303 16.73504 10.257965
 endloop
endfacet
facet normal 0.9961947 0.08713349 -0.0019715065
 outer loop
  vertex -2.0504584 1.3434391 10.472734
  vertex -3.3971303 16.73504 10.257965
  vertex -2.0504491 1.3460426 10.592484
 endloop
endfacet
facet normal 0.0871558 -0.9959595 0.021646421
 outer loop
  vertex -2.0504491 1.3460426 10.592484
  vertex -5.6301317 1.0329409 10.599571
  vertex -5.6301413 1.0303373 10.47982
 endloop
endfacet
facet normal 0.08715578 -0.9959595 0.021646807
 outer loop
  vertex -2.0504491 1.3460426 10.592484
  vertex -5.6301413 1.0303373 10.47982
  vertex -2.0504584 1.3434391 10.472734
 endloop
endfacet
facet normal -0.9961947 -0.08713344 0.001973737
 outer loop
  vertex -5.6301317 1.0329409 10.599571
  vertex -6.976813 16.42194 10.265051
  vertex -6.9768224 16.419336 10.145301
 endloop
endfacet
facet normal -0.9961947 -0.087133445 0.0019735515
 outer loop
  vertex -5.6301317 1.0329409 10.599571
  vertex -6.9768224 16.419336 10.145301
  vertex -5.6301413 1.0303373 10.47982
 endloop
endfacet
facet normal 7.753744e-05 0.021739217 0.99976367
 outer loop
  vertex -2.0504491 1.3460426 10.592484
  vertex -3.3971303 16.73504 10.257965
  vertex -6.976813 16.42194 10.265051
 endloop
endfacet
facet normal 7.779171e-05 0.021739297 0.99976367
 outer loop
  vertex -2.0504491 1.3460426 10.592484
  vertex -6.976813 16.42194 10.265051
  vertex -5.6301317 1.0329409 10.599571
 endloop
endfacet
facet normal -0.08715553 0.9959595 -0.02164694
 outer loop
  vertex -6.9784107 15.972967 -10.382702
  vertex -3.3987281 16.286068 -10.389788
  vertex -3.3987374 16.283464 -10.509537
 endloop
endfacet
facet normal -0.08715551 0.99595946 -0.021646703
 outer loop
  vertex -6.9784107 15.972967 -10.382702
  vertex -3.3987374 16.283464 -10.509537
  vertex -6.9784203 15.970364 -10.502451
 endloop
endfacet
facet normal -7.7532066e-05 -0.021739278 -0.99976367
 outer loop
  vertex -5.6317387 0.5813656 -10.167931
  vertex -6.9784203 15.970364 -10.502451
  vertex -3.3987374 16.283464 -10.509537
 endloop
endfacet
facet normal -7.806655e-05 -0.021739202 -0.9997637
 outer loop
  vertex -5.6317387 0.5813656 -10.167931
  vertex -3.3987374 16.283464 -10.509537
  vertex -2.052056 0.8944664 -10.175018
 endloop
endfacet
facet normal 0.99619466 0.0871335 -0.0019717705
 outer loop
  vertex -2.052056 0.8944664 -10.175018
  vertex -3.3987374 16.283464 -10.509537
  vertex -3.3987281 16.286068 -10.389788
 endloop
endfacet
facet normal 0.99619466 0.08713349 -0.0019715216
 outer loop
  vertex -2.052056 0.8944664 -10.175018
  vertex -3.3987281 16.286068 -10.389788
  vertex -2.0520468 0.89706993 -10.055269
 endloop
endfacet
facet normal 0.08715552 -0.99595946 0.021647112
 outer loop
  vertex -2.0520468 0.89706993 -10.055269
  vertex -5.6317296 0.5839691 -10.048182
  vertex -5.6317387 0.5813656 -10.167931
 endloop
endfacet
facet normal 0.08715554 -0.9959595 0.021646984
 outer loop
  vertex -2.0520468 0.89706993 -10.055269
  vertex -5.6317387 0.5813656 -10.167931
  vertex -2.052056 0.8944664 -10.175018
 endloop
endfacet
facet normal -0.99619466 -0.08713344 0.0019737526
 outer loop
  vertex -5.6317296 0.5839691 -10.048182
  vertex -6.9784107 15.972967 -10.382702
  vertex -6.9784203 15.970364 -10.502451
 endloop
endfacet
facet normal -0.99619466 -0.08713354 0.001970491
 outer loop
  vertex -5.6317296 0.5839691 -10.048182
  vertex -6.9784203 15.970364 -10.502451
  vertex -5.6317387 0.5813656 -10.167931
 endloop
endfacet
facet normal 7.7542805e-05 0.021739155 0.99976367
 outer loop
  vertex -2.0520468 0.89706993 -10.055269
  vertex -3.3987281 16.286068 -10.389788
  vertex -6.9784107 15.972967 -10.382702
 endloop
endfacet
facet normal 7.805795e-05 0.02173932 0.99976367
 outer loop
  vertex -2.0520468 0.89706993 -10.055269
  vertex -6.9784107 15.972967 -10.382702
  vertex -5.6317296 0.5839691 -10.048182
 endloop
endfacet
endsolid 
